<svg width="21" height="23" viewBox="0 0 21 23" fill="none" xmlns="http://www.w3.org/2000/svg">
<path d="M3.012 22.016C1.956 20.264 1.248 18.428 0.888 16.508C0.528 14.564 0.492 12.644 0.78 10.748C1.068 8.852 1.68 7.04 2.616 5.312C3.576 3.584 4.848 2.036 6.432 0.667998L8.628 2C9.012 2.264 9.18 2.588 9.132 2.972C9.084 3.332 8.952 3.632 8.736 3.872C8.16 4.592 7.644 5.492 7.188 6.572C6.756 7.628 6.468 8.78 6.324 10.028C6.18 11.276 6.228 12.572 6.468 13.916C6.708 15.26 7.212 16.58 7.98 17.876C8.316 18.428 8.412 18.92 8.268 19.352C8.124 19.784 7.812 20.096 7.332 20.288L3.012 22.016ZM14.208 22.016C13.152 20.264 12.444 18.428 12.084 16.508C11.724 14.564 11.688 12.644 11.976 10.748C12.264 8.852 12.876 7.04 13.812 5.312C14.772 3.584 16.044 2.036 17.628 0.667998L19.824 2C20.208 2.264 20.376 2.588 20.328 2.972C20.28 3.332 20.148 3.632 19.932 3.872C19.356 4.592 18.84 5.492 18.384 6.572C17.952 7.628 17.664 8.78 17.52 10.028C17.376 11.276 17.424 12.572 17.664 13.916C17.904 15.26 18.408 16.58 19.176 17.876C19.512 18.428 19.608 18.92 19.464 19.352C19.32 19.784 19.008 20.096 18.528 20.288L14.208 22.016Z" fill="#FAC663"/>
</svg>
