<svg width="339" height="106" viewBox="0 0 339 106" fill="none" xmlns="http://www.w3.org/2000/svg">
<g opacity="0.15">
<path fill-rule="evenodd" clip-rule="evenodd" d="M259.735 36.4576C266.208 44.1849 264.766 64.1521 257.499 69.6788C253.457 58.2605 254.877 47.4235 259.735 36.4576ZM230.584 82.0979C224.631 69.5105 227.258 33.5993 232.127 24.4187C241.708 37.1635 240.987 67.6355 230.584 82.0979ZM63.7429 30.719C71.8146 30.7015 77.4939 36.5035 77.4994 44.7618C77.505 52.8955 71.5575 58.9991 63.7149 58.903C55.8555 58.8134 50.2823 53.0179 50.232 44.906C50.1761 36.4926 55.6655 30.7365 63.7429 30.719ZM200.024 13.7632C216.05 35.3059 212.64 76.5821 197.905 92.1109C198.615 66.014 199.308 40.3016 200.024 13.7632ZM107.942 8.56433C127.467 36.8554 122.062 78.2146 105.874 95.5069C110.083 66.0642 109.037 37.3317 107.942 8.56433ZM164.137 96.9733C169.408 67.3798 169.721 38.0813 169.649 7.88249C185.613 30.1705 184.093 77.6551 164.137 96.9733ZM135.958 97.8059C138.714 67.6355 143.711 37.5044 138.01 7.12635C158.1 29.493 155.372 71.9602 135.958 97.8059ZM315.337 54.7246C324.617 49.0232 331.643 41.6215 336.333 32.2007C342.51 19.764 337.786 11.7767 323.94 10.5573C316.528 9.90173 309.613 11.5582 303.414 15.3344C297.718 18.7981 292.475 23.0158 287.069 26.9537C285.627 28.0049 284.336 29.2526 282.944 30.3825C277.343 34.893 271.502 35.5136 264.855 32.3908C252.753 26.7067 240.69 20.7999 228.18 16.1408C201.729 6.29379 174.148 1.58225 145.981 0.290725C103.28 -1.6785 62.4515 6.38772 23.395 23.5293C17.2294 26.2369 11.6284 30.271 5.86529 33.8571C4.47899 34.7137 3.37222 36.1123 2.3716 37.4323C-0.987903 41.8182 -0.859387 46.344 3.2771 50.0022C34.899 78.0092 69.9532 99.2788 112.939 104.049C154.606 108.665 195.2 104.213 233.977 87.5305C244.609 82.9654 254.81 77.3711 265.191 72.2115C268.489 70.5725 271.77 68.8898 274.962 67.0651C276.901 65.9528 277.773 66.545 278.914 68.3085C282.072 73.1687 285.141 78.1599 288.886 82.5459C296.321 91.2499 305.879 94.5847 317.171 91.9602C325.164 90.1092 328.697 84.6088 327.372 76.5603C325.947 67.9501 321.313 61.073 315.337 54.7246Z" fill="#FAB751"/>
<path fill-rule="evenodd" clip-rule="evenodd" d="M135.959 97.806C155.373 71.9603 158.1 29.4931 138.01 7.12646C143.712 37.5045 138.715 67.6356 135.959 97.806Z" fill="white"/>
<path fill-rule="evenodd" clip-rule="evenodd" d="M164.137 96.9733C184.093 77.6552 185.613 30.1706 169.648 7.88257C169.721 38.0814 169.408 67.3799 164.137 96.9733Z" fill="white"/>
<path fill-rule="evenodd" clip-rule="evenodd" d="M107.942 8.5647C109.038 37.3321 110.083 66.0646 105.874 95.5073C122.062 78.2149 127.468 36.8557 107.942 8.5647Z" fill="white"/>
<path fill-rule="evenodd" clip-rule="evenodd" d="M200.024 13.7633C199.308 40.3017 198.615 66.014 197.905 92.111C212.64 76.5822 216.05 35.3061 200.024 13.7633Z" fill="white"/>
<path fill-rule="evenodd" clip-rule="evenodd" d="M63.7432 30.7187C55.6658 30.7362 50.1765 36.4923 50.2324 44.9057C50.2827 53.0176 55.8559 58.813 63.7152 58.9026C71.5578 58.9988 77.5054 52.8952 77.4998 44.7615C77.4942 36.5032 71.815 30.7012 63.7432 30.7187Z" fill="white"/>
<path fill-rule="evenodd" clip-rule="evenodd" d="M230.584 82.0978C240.987 67.6354 241.708 37.1635 232.127 24.4188C227.258 33.5993 224.631 69.5104 230.584 82.0978Z" fill="white"/>
<path fill-rule="evenodd" clip-rule="evenodd" d="M259.735 36.4572C254.872 47.4231 253.458 58.26 257.499 69.6783C264.766 64.1516 266.208 44.1844 259.735 36.4572Z" fill="white"/>
</g>
</svg>
