<svg width="75" height="75" viewBox="0 0 75 75" fill="none" xmlns="http://www.w3.org/2000/svg">
<rect width="75" height="75" rx="37.5" fill="#FAC663"/>
<path d="M38.8672 38.4205C41.5666 38.4205 43.7752 41.2579 43.7752 41.9672C43.7752 42.6765 41.5666 45.041 38.8672 45.041C36.1678 45.041 34.2046 41.9672 34.2046 41.9672C34.2046 41.9672 36.1678 38.4205 38.8672 38.4205Z" fill="#FFFDFB"/>
<path d="M31.2598 39.1299L34.2046 41.9672M34.2046 41.9672L31.2598 44.8045M34.2046 41.9672C34.2046 41.9672 36.1678 45.041 38.8672 45.041C41.5666 45.041 43.7752 42.6765 43.7752 41.9672C43.7752 41.2579 41.5666 38.4205 38.8672 38.4205C36.1678 38.4205 34.2046 41.9672 34.2046 41.9672Z" stroke="#FFFDFB" stroke-width="2" stroke-linecap="round" stroke-linejoin="round"/>
<path d="M56.0915 32.1234L56.0915 32.1234C56.0538 31.8693 55.8741 31.6496 55.6225 31.5498L55.6852 31.9618L58.5522 50.8035L58.6136 51.2072C58.6284 51.1932 58.6426 51.1787 58.6563 51.1636L56.0915 32.1234ZM56.0915 32.1234L58.8333 50.5906M56.0915 32.1234L58.8333 50.5906M43.0311 26.2735C43.414 26.883 44.1352 27.1934 44.8442 27.078L44.8446 27.0779C45.1698 27.0247 45.7062 27.1193 46.2111 27.3588C46.7324 27.6061 47.0388 27.9196 47.1058 28.1606C47.2851 28.8059 47.8233 29.2789 48.4726 29.4059C48.4894 29.4227 48.5094 29.4433 48.5325 29.4682C48.6324 29.5752 48.7665 29.7326 48.9164 29.9232C49.0526 30.0964 49.1972 30.2911 49.337 30.493H25.7497C25.8964 30.3284 26.0559 30.1644 26.2163 30.0115C26.4179 29.8192 26.6085 29.6561 26.758 29.5427C26.8335 29.4855 26.8915 29.4462 26.9308 29.4229C26.9324 29.4219 26.9341 29.421 26.9356 29.4201C27.622 29.3183 28.198 28.8329 28.3851 28.1608L28.3851 28.1606C28.4541 27.9126 28.7634 27.5998 29.2854 27.355C29.7917 27.1176 30.328 27.0261 30.6466 27.078C31.3561 27.1938 32.0771 26.8824 32.4594 26.2736L32.0361 26.0075L32.4595 26.2734C32.6202 26.0178 32.9488 25.7883 33.3614 25.6709C33.7729 25.5538 34.1844 25.5723 34.4756 25.7096M43.0311 26.2735L43.4545 26.0075L43.0312 26.2735C43.0311 26.2735 43.0311 26.2735 43.0311 26.2735ZM43.0311 26.2735C42.9681 26.1733 42.8405 26.0545 42.6326 25.9404C42.4291 25.8287 42.1765 25.7369 41.9042 25.6758C41.3357 25.5483 40.8023 25.5787 40.5245 25.7096L40.5245 25.7097C39.8737 26.0164 39.0938 25.9108 38.5538 25.4354M38.5538 25.4354C38.5539 25.4354 38.5539 25.4354 38.5539 25.4355L38.884 25.0605L38.5538 25.4354ZM38.5538 25.4354C38.3197 25.2293 37.9318 25.0989 37.4993 25.0992C37.0667 25.0994 36.6793 25.2303 36.4463 25.4354M36.4463 25.4354C36.4463 25.4354 36.4463 25.4354 36.4463 25.4354L36.1159 25.0602L36.4463 25.4354ZM36.4463 25.4354C35.9064 25.9108 35.1261 26.0165 34.4756 25.7096M34.4756 25.7096L34.6888 25.2574L34.4755 25.7096C34.4756 25.7096 34.4756 25.7096 34.4756 25.7096ZM58.8333 50.5906C58.8633 50.7936 58.8013 51.0025 58.6563 51.1636L58.8333 50.5906ZM58.0579 51.3787H58.3281C58.2438 51.4076 58.1536 51.4231 58.0608 51.4231H16.939C16.8461 51.4231 16.7559 51.4076 16.6716 51.3787H16.9419H58.0579ZM16.3862 51.2073C16.3715 51.1934 16.3573 51.1789 16.3437 51.1638C16.1986 51.0027 16.1366 50.7938 16.1668 50.5911L16.1669 50.5908L18.9083 32.1234L18.9083 32.1234C18.946 31.8693 19.1257 31.6496 19.3773 31.5498L19.3146 31.9618L16.4476 50.8035L16.3862 51.2073ZM19.8089 31.537H19.4118C19.495 31.5084 19.5853 31.4926 19.6804 31.4926H23.0384H23.4359L23.5255 31.1053C24.0486 28.8435 26.1193 28.1584 26.3639 28.0803L26.5607 28.0174L26.6557 27.834C27.7757 25.6711 30.0963 25.5603 30.3563 25.5515L30.559 25.5447L30.6997 25.3986C32.0698 23.9754 33.9285 23.9592 34.9264 24.2059L35.121 24.2541L35.295 24.1544C37.0316 23.1593 38.8213 23.6482 39.7048 24.1544L39.8788 24.2541L40.0734 24.2059C41.071 23.9592 42.9294 23.9751 44.2998 25.3986L44.4405 25.5448L44.6433 25.5515C44.9059 25.5603 47.2231 25.671 48.3439 27.8338L48.4388 28.017L48.6354 28.0799C48.8764 28.157 50.9493 28.8387 51.474 31.1054L51.5636 31.4926H51.9611H55.3194C55.4145 31.4926 55.5048 31.5084 55.588 31.537H55.1909H19.8089ZM26.7606 28.4346L26.7605 28.4346C26.6117 28.4515 26.4809 28.5271 26.4208 28.5628C26.3371 28.6124 26.246 28.676 26.1537 28.746C25.9677 28.8871 25.7483 29.076 25.5262 29.2878C25.0909 29.7028 24.5949 30.2538 24.3225 30.7537L23.9195 31.493H24.7615H50.238H51.0805L50.6769 30.7534C50.402 30.2497 50.0241 29.714 49.7025 29.3051C49.5411 29.0998 49.3883 28.9194 49.2636 28.7858C49.2022 28.7201 49.1409 28.6583 49.0846 28.6091C49.0571 28.5851 49.0219 28.5561 48.9824 28.5299L48.9805 28.5287C48.9573 28.5132 48.862 28.4496 48.7302 28.4346L48.73 28.4346C48.4027 28.3975 48.1475 28.1745 48.0693 27.8929L48.0693 27.8928C47.8827 27.2214 47.237 26.7386 46.6397 26.4553C46.0261 26.1642 45.2776 25.9938 44.6833 26.091C44.356 26.1442 44.0389 25.9979 43.8779 25.7416L43.8779 25.7415C43.6934 25.4479 43.4099 25.2263 43.1138 25.0638C42.8134 24.8989 42.4693 24.7778 42.1231 24.7001C41.4546 24.5501 40.6638 24.5384 40.0981 24.8051C39.8031 24.9442 39.4513 24.8932 39.2147 24.6849L39.2146 24.6849C38.7493 24.2752 38.1014 24.0989 37.4988 24.0992C36.8963 24.0995 36.2493 24.2765 35.7855 24.6849L35.7854 24.6849C35.5488 24.8933 35.1967 24.9441 34.9021 24.8052L34.9021 24.8052C34.3378 24.539 33.6668 24.5443 33.0878 24.7091C32.51 24.8735 31.94 25.2207 31.6127 25.7415L31.6126 25.7417C31.4517 25.998 31.1345 26.1444 30.8077 26.091L30.8074 26.091C30.2226 25.9957 29.476 26.1612 28.8609 26.4497C28.2615 26.7307 27.6108 27.2125 27.4217 27.8926C27.3432 28.1746 27.0881 28.3975 26.7606 28.4346ZM26.963 29.4056C26.963 29.4057 26.961 29.4067 26.9572 29.4083C26.9612 29.4063 26.963 29.4055 26.963 29.4056Z" fill="#FFFDFB" stroke="#FFFDFB" stroke-width="0.999999"/>
</svg>
