<svg width="75" height="75" viewBox="0 0 75 75" fill="none" xmlns="http://www.w3.org/2000/svg">
<rect width="75" height="75" rx="37.5" fill="#FAC663"/>
<path d="M33.0282 31.1331C32.821 31.6219 32.7174 32.1385 32.7202 32.6686C32.7259 33.7338 33.1704 34.7441 33.972 35.5134C34.7738 36.283 35.8425 36.7246 36.9812 36.7569C37.8699 36.7816 38.7462 36.5537 39.4894 36.1083C40.1955 36.5314 41.0216 36.7588 41.8647 36.7588C41.9089 36.7588 41.9532 36.7582 41.9975 36.757C43.1247 36.725 44.1857 36.2908 44.9852 35.5344C45.7847 34.7781 46.2366 33.781 46.2578 32.7267C46.2711 32.0674 46.1222 31.4348 45.8152 30.8466C45.5342 30.3082 43.26 27.9761 42.4558 27.1212C42.2544 26.907 42.7954 27.6558 42.5665 27.8441C42.3375 28.0324 41.5921 27.7334 41.7934 27.9475C42.5213 28.7214 44.5887 30.8514 44.8226 31.2995C45.0522 31.7394 45.1635 32.213 45.1536 32.7073C45.1204 34.3496 43.7194 35.675 41.964 35.7248C41.1941 35.7471 40.4356 35.5139 39.8305 35.0696C39.6302 34.9225 39.3485 34.9225 39.1482 35.0696C38.5431 35.514 37.7847 35.7466 37.0147 35.7248C35.2644 35.6752 33.8333 34.3018 33.8246 32.6635C33.8224 32.2661 33.9 31.8793 34.0549 31.5138C34.4131 30.6688 35.1878 29.7136 36.6452 28.3196C38.0143 27.0099 40.2274 26.8499 41.7934 27.9475C42.0374 28.1185 42.3836 28.0722 42.5665 27.8441C42.7494 27.6159 42.6999 27.2923 42.4558 27.1212C40.4482 25.714 37.6106 25.9188 35.8553 27.5977C34.2684 29.1156 33.4493 30.1399 33.0282 31.1331Z" fill="#FFFDFB"/>
<path d="M36.5747 25.9415C37.994 25.9415 39.1486 24.5595 39.1486 22.8609C39.1486 21.1623 37.994 19.7803 36.5747 19.7803C35.1555 19.7803 34.0008 21.1622 34.0008 22.8609C34.0008 24.5595 35.1555 25.9415 36.5747 25.9415ZM36.5747 20.8129C37.3712 20.8129 38.0441 21.7508 38.0441 22.8609C38.0441 23.971 37.3712 24.9088 36.5747 24.9088C35.7783 24.9088 35.1053 23.971 35.1053 22.8609C35.1053 21.7508 35.7783 20.8129 36.5747 20.8129Z" fill="#FFFDFB"/>
<path d="M36.5747 20.8129C37.3712 20.8129 38.0441 21.7508 38.0441 22.8609C38.0441 23.971 37.3712 24.9088 36.5747 24.9088C35.7783 24.9088 35.1053 23.971 35.1053 22.8609C35.1053 21.7508 35.7783 20.8129 36.5747 20.8129Z" fill="#FFFDFB"/>
<path d="M31.3012 29.6334C32.4465 29.6334 33.3437 28.5763 33.3437 27.2268C33.3437 25.8773 32.4465 24.8202 31.3012 24.8202C30.1558 24.8202 29.2587 25.8773 29.2587 27.2268C29.2587 28.5763 30.1558 29.6334 31.3012 29.6334ZM31.3012 25.8529C31.8097 25.8529 32.2392 26.482 32.2392 27.2268C32.2392 27.9716 31.8097 28.6007 31.3012 28.6007C30.7927 28.6007 30.3632 27.9716 30.3632 27.2268C30.3632 26.482 30.7927 25.8529 31.3012 25.8529Z" fill="#FFFDFB"/>
<path d="M31.3012 25.8529C31.8097 25.8529 32.2392 26.482 32.2392 27.2268C32.2392 27.9716 31.8097 28.6007 31.3012 28.6007C30.7927 28.6007 30.3632 27.9716 30.3632 27.2268C30.3632 26.482 30.7927 25.8529 31.3012 25.8529Z" fill="#FFFDFB"/>
<path d="M47.4674 29.6334C48.6127 29.6334 49.5099 28.5763 49.5099 27.2268C49.5099 25.8773 48.6127 24.8202 47.4674 24.8202C46.322 24.8202 45.4249 25.8773 45.4249 27.2268C45.4249 28.5763 46.322 29.6334 47.4674 29.6334ZM47.4674 25.8529C47.9759 25.8529 48.4054 26.482 48.4054 27.2268C48.4054 27.9716 47.9759 28.6007 47.4674 28.6007C46.9589 28.6007 46.5294 27.9716 46.5294 27.2268C46.5294 26.482 46.9589 25.8529 47.4674 25.8529Z" fill="#FFFDFB"/>
<path d="M47.4674 25.8529C47.9759 25.8529 48.4054 26.482 48.4054 27.2268C48.4054 27.9716 47.9759 28.6007 47.4674 28.6007C46.9589 28.6007 46.5294 27.9716 46.5294 27.2268C46.5294 26.482 46.9589 25.8529 47.4674 25.8529Z" fill="#FFFDFB"/>
<path d="M43.0375 25.9415C44.4567 25.9415 45.6114 24.5595 45.6114 22.8609C45.6114 21.1623 44.4567 19.7803 43.0375 19.7803C41.6182 19.7803 40.4636 21.1622 40.4636 22.8609C40.4636 24.5595 41.6182 25.9415 43.0375 25.9415ZM43.0375 20.8129C43.834 20.8129 44.507 21.7508 44.507 22.8609C44.507 23.971 43.834 24.9088 43.0375 24.9088C42.241 24.9088 41.5681 23.971 41.5681 22.8609C41.568 21.7508 42.2409 20.8129 43.0375 20.8129Z" fill="#FFFDFB"/>
<path d="M43.0375 20.8129C43.834 20.8129 44.507 21.7508 44.507 22.8609C44.507 23.971 43.834 24.9088 43.0375 24.9088C42.241 24.9088 41.5681 23.971 41.5681 22.8609C41.568 21.7508 42.2409 20.8129 43.0375 20.8129Z" fill="#FFFDFB"/>
<path d="M53.5288 36.2131C52.969 35.6896 52.2246 35.4013 51.4329 35.4013C50.6411 35.4013 49.8967 35.6896 49.3368 36.2131L46.0866 39.2519C45.5439 38.6931 44.7612 38.3417 43.8922 38.3417H39.2367C38.9317 38.3417 39.8195 38.5729 39.8195 38.858C39.8195 39.1432 38.9317 39.3743 39.2367 39.3743H43.8922C44.9177 39.3743 45.752 40.1544 45.752 41.1132C45.752 42.072 44.9177 42.8521 43.8922 42.8521H39.2367C38.9317 42.8521 38.6845 43.0833 38.6845 43.3684C38.6845 43.6536 38.9317 43.8848 39.2367 43.8848H43.8922C45.5267 43.8848 46.8565 42.6415 46.8565 41.1132C46.8565 40.7784 46.7926 40.4572 46.6757 40.1598C46.6821 40.1544 46.6886 40.1494 46.6947 40.1437L50.1178 36.9432C50.8429 36.2652 52.0228 36.2652 52.7479 36.9432C53.473 37.6213 53.473 38.7244 52.7479 39.4024L45.8853 45.8187H39.5563C39.2513 45.8187 39.8195 46.0499 39.8195 46.335C39.8195 46.6202 39.5145 46.8514 39.8195 46.8514H46.1141C46.2605 46.8514 46.401 46.797 46.5046 46.7001L53.5288 40.1325C54.6845 39.0521 54.6845 37.2938 53.5288 36.2131Z" fill="#FFFDFB"/>
<path d="M39.9609 45.8188H37.4468C37.3015 45.8188 37.1621 45.8723 37.0588 45.9678L35.3223 47.5713L31.079 43.6039C30.9978 43.321 30.9567 43.0286 30.9567 42.7331C30.9567 40.8857 32.5641 39.3828 34.54 39.3828C34.5727 39.3828 34.6046 39.3796 34.6358 39.3745H39.4897C39.7947 39.3745 40.042 39.1434 40.042 38.8582C40.042 38.573 39.7947 38.3419 39.4897 38.3419H34.1032C34.0138 38.3419 33.9297 38.3622 33.855 38.3974C31.6413 38.7019 29.9271 40.4582 29.8559 42.5953L29.4096 42.178C29.1939 41.9763 28.8442 41.9763 28.6286 42.178L25.7027 44.9136C25.6839 44.9312 25.6673 44.9501 25.6519 44.9694L20.7535 50.0931C20.6632 50.1875 20.6132 50.3096 20.613 50.4362L20.6044 54.6789C20.6038 54.9639 20.8503 55.1953 21.1551 55.1962L30.2557 55.2198H30.2572C30.4037 55.2198 30.5441 55.1655 30.6477 55.0686L36.5318 49.5671C36.6354 49.4703 36.6936 49.3389 36.6936 49.202C36.6936 49.065 36.6354 48.9337 36.5318 48.8369L36.0309 48.3686L37.6737 46.8516H39.9611C40.2661 46.8516 40.5134 46.6204 40.5134 46.3352C40.5131 46.05 40.2659 45.8188 39.9609 45.8188ZM30.0289 54.1865L21.7098 54.1648L21.717 50.6346L26.1176 46.0317L32.4342 51.9377L30.0289 54.1865ZM33.2488 51.1759L26.9078 45.2471L29.019 43.2731L35.3601 49.2019L33.2488 51.1759Z" fill="#FFFDFB"/>
</svg>
