<svg width="147" height="144" viewBox="0 0 147 144" fill="none" xmlns="http://www.w3.org/2000/svg">
<path d="M38.8388 82.31C56.8222 79.6469 70.8257 101.944 57.3114 112.503C51.4828 117.057 43.0508 116.662 36.4738 112.873C21.2842 104.123 23.3974 84.5944 38.8388 82.31Z" fill="#FAC663" fill-opacity="0.15"/>
<path d="M53.6316 74.8684C38.683 86.5476 14.5815 64.9249 25.5569 49.6994C30.5578 42.7632 41.4416 41.528 50.2506 47.9318C60.1268 55.1074 62.0354 68.3027 53.6316 74.8684Z" fill="#FAC663" fill-opacity="0.15"/>
<path d="M92.4103 116.578C94.0426 114.388 97.4412 111.144 101.257 108.078C105.287 104.834 109.781 101.788 113.134 100.387C122.199 96.6162 128.461 83.7127 118.163 75.1213C108.641 67.1796 101.665 73.5056 92.8438 65.8215C83.9335 58.0515 73.6319 58.9904 67.2406 64.5396C61.3259 69.6763 58.7631 78.7631 63.7691 88.5405C69.1058 98.9573 61.2915 104.178 66.6944 115.333C72.5376 127.418 86.5731 124.42 92.4103 116.578Z" fill="#FAC663" fill-opacity="0.15"/>
<path d="M79.9415 54.3143C75.7131 57.6179 70.183 58.0249 65.2591 55.8821C50.6196 49.5091 48.5098 26.5009 62.3194 20.9921C79.7812 14.0184 94.8819 42.6416 79.9415 54.3143Z" fill="#FAC663" fill-opacity="0.15"/>
<path d="M99.925 65.9648C86.0455 58.0934 86.3318 35.0089 100.687 30.9861C117.979 26.1398 130.334 53.8523 115.943 65.0961C111.324 68.7045 105.201 68.9573 99.925 65.9648Z" fill="#FAC663" fill-opacity="0.15"/>
</svg>
