<svg width="144" height="134" viewBox="0 0 144 134" fill="none" xmlns="http://www.w3.org/2000/svg">
<path d="M44.261 41.8095C56.1974 56.4077 43.8123 80.8901 27.2299 74.5247C20.078 71.7794 15.9435 64.0502 15.8146 56.1484C15.5177 37.8987 34.0139 29.2736 44.261 41.8095Z" fill="#FAC663" fill-opacity="0.15"/>
<path d="M58.7507 50.992C40.4085 43.951 46.8212 10.8298 66.2045 12.4204C75.0353 13.1458 81.9244 22.1834 80.9141 33.4823C79.7852 46.1479 69.0624 54.9502 58.7507 50.992Z" fill="#FAC663" fill-opacity="0.15"/>
<path d="M42.2773 108.007C45.0938 108.283 49.7881 109.567 54.5452 111.318C59.5753 113.166 64.6754 115.533 67.7053 117.768C75.8827 123.819 90.693 122.458 92.8569 108.654C94.8559 95.8923 85.5176 93.0783 87.6599 81.0791C89.8316 68.9547 83.5158 60.2766 75.1791 57.5653C67.463 55.057 58.0161 57.6623 51.9817 67.3865C45.5543 77.7496 36.7528 73.593 29.7043 84.412C22.0619 96.1246 32.1962 107.023 42.2773 108.007Z" fill="#FAC663" fill-opacity="0.15"/>
<path d="M91.0323 63.3849C85.844 61.3933 82.5398 56.6825 81.8265 51.14C79.7073 34.6601 99.0524 20.3977 111.3 29.7438C126.793 41.5573 109.364 70.422 91.0323 63.3849Z" fill="#FAC663" fill-opacity="0.15"/>
<path d="M91.2997 87.4688C90.9178 70.86 111.606 58.6926 122.822 69.3251C136.332 82.1317 118.253 108.059 100.594 101.28C94.9269 99.1049 91.4445 93.7825 91.2997 87.4688Z" fill="#FAC663" fill-opacity="0.15"/>
</svg>
