<svg width="253" height="348" viewBox="0 0 253 348" fill="none" xmlns="http://www.w3.org/2000/svg">
<path d="M115.514 108.944C146.351 146.783 114.225 210.349 71.34 193.886C52.8437 186.786 42.171 166.745 41.8632 146.242C41.1545 98.8909 89.0409 76.4508 115.514 108.944Z" fill="#FAC663" fill-opacity="0.15"/>
<path d="M152.976 132.723C105.539 114.514 122.24 28.5528 172.388 32.6166C195.235 34.47 213.03 57.8975 210.38 87.2182C207.417 120.085 179.644 142.96 152.976 132.723Z" fill="#FAC663" fill-opacity="0.15"/>
<path d="M110.165 280.713C117.452 281.422 129.594 284.738 141.897 289.266C154.906 294.043 168.095 300.168 175.927 305.957C197.066 321.632 235.392 318.052 241.036 282.228C246.25 249.108 222.096 241.837 227.679 210.696C233.338 179.23 217.024 156.733 195.462 149.725C175.505 143.242 151.053 150.033 135.407 175.284C118.743 202.194 95.9831 191.438 77.7102 219.533C57.8975 249.949 84.0841 278.194 110.165 280.713Z" fill="#FAC663" fill-opacity="0.15"/>
<path d="M236.462 164.774C223.044 159.623 214.51 147.411 212.683 133.032C207.253 90.278 257.354 53.2082 289.014 77.4186C329.064 108.021 283.873 182.973 236.462 164.774Z" fill="#FAC663" fill-opacity="0.15"/>
<path d="M237.076 227.263C236.142 184.17 289.71 152.531 318.696 180.083C353.612 213.268 306.748 280.6 261.079 263.07C246.423 257.444 237.43 243.645 237.076 227.263Z" fill="#FAC663" fill-opacity="0.15"/>
</svg>
