<svg width="247" height="293" viewBox="0 0 247 293" fill="none" xmlns="http://www.w3.org/2000/svg">
<path d="M79.1637 167.239C115.696 161.95 144.326 207.458 116.936 228.857C105.122 238.087 87.9807 237.22 74.5842 229.456C43.6451 211.525 47.795 171.775 79.1637 167.239Z" fill="#FAC663" fill-opacity="0.15"/>
<path d="M109.176 152.196C78.8786 175.866 29.7295 131.657 51.9244 100.735C62.0374 86.6483 84.1502 84.2141 102.103 97.3198C122.23 112.005 126.208 138.888 109.176 152.196Z" fill="#FAC663" fill-opacity="0.15"/>
<path d="M188.307 237.418C191.608 232.97 198.492 226.389 206.224 220.174C214.392 213.599 223.504 207.431 230.308 204.603C248.705 196.991 261.337 170.762 240.341 153.191C220.929 136.949 206.798 149.778 188.81 134.066C170.641 118.177 149.709 120.012 136.76 131.264C124.776 141.68 119.635 160.165 129.883 180.111C140.808 201.363 124.963 211.935 136.028 234.689C147.995 259.343 176.501 253.342 188.307 237.418Z" fill="#FAC663" fill-opacity="0.15"/>
<path d="M162.499 110.538C153.929 117.233 142.692 118.021 132.668 113.621C102.865 100.534 98.4049 53.6673 126.433 42.5526C161.873 28.4823 192.78 86.8798 162.499 110.538Z" fill="#FAC663" fill-opacity="0.15"/>
<path d="M203.204 134.41C174.934 118.278 175.344 71.2737 204.493 63.1891C239.603 53.4494 264.922 109.972 235.755 132.761C226.394 140.074 213.95 140.543 203.204 134.41Z" fill="#FAC663" fill-opacity="0.15"/>
</svg>
