<svg width="91" height="95" viewBox="0 0 91 95" fill="none" xmlns="http://www.w3.org/2000/svg">
<path d="M72.4708 22.6634C50.2902 24.6408 34.486 -2.79961 51.67 -14.4611C59.0813 -19.4907 69.3823 -18.4633 77.2075 -13.5233C95.2798 -2.11344 91.5161 20.9684 72.4708 22.6634Z" fill="#FAC663" fill-opacity="0.15"/>
<path d="M53.9092 30.5339C72.9168 17.6348 101.126 44.9408 86.7702 62.3199C80.229 70.2371 66.8277 70.986 56.4269 62.7884C44.7658 53.6026 43.2235 37.7856 53.9092 30.5339Z" fill="#FAC663" fill-opacity="0.15"/>
<path d="M8.93763 -21.6289C6.80702 -19.1329 2.45005 -15.4997 -2.40635 -12.1062C-7.53696 -8.51523 -13.2232 -5.19102 -17.4128 -3.74676C-28.7397 0.138022 -37.185 15.0676 -25.0923 25.9651C-13.9115 36.0384 -4.98933 28.9774 5.34987 38.6982C15.7923 48.5271 28.463 48.092 36.6232 41.916C44.175 36.1991 47.8603 25.5633 42.3194 13.6057C36.4122 0.865828 46.295 -4.82534 40.3512 -18.4468C33.9242 -33.2045 16.5574 -30.5675 8.93763 -21.6289Z" fill="#FAC663" fill-opacity="0.15"/>
<path d="M20.4554 53.235C25.8319 49.5864 32.628 49.4682 38.528 52.3419C56.0701 60.8885 57.2677 88.3875 40.0264 94.0248C18.2248 101.162 1.45817 66.1271 20.4554 53.235Z" fill="#FAC663" fill-opacity="0.15"/>
<path d="M-3.31228 38.0594C13.2088 48.3375 11.4678 75.7689 -6.35256 79.6029C-27.8176 84.2221 -41.2771 50.4513 -22.9779 38.0329C-17.1053 34.0476 -9.59244 34.152 -3.31228 38.0594Z" fill="#FAC663" fill-opacity="0.15"/>
</svg>
