<svg width="167" height="162" viewBox="0 0 167 162" fill="none" xmlns="http://www.w3.org/2000/svg">
<path d="M52.8787 50.8642C62.3821 71.0094 41.182 95.544 23.9981 83.5117C16.5867 78.3222 14.0597 68.2799 16.173 59.1833C21.0546 38.1743 44.7214 33.5656 52.8787 50.8642Z" fill="#FAC663" fill-opacity="0.15"/>
<path d="M66.8582 65.5289C47.8505 52.2196 64.6775 16.0752 86.4378 23.4326C96.3513 26.7853 101.661 39.1142 97.2701 51.7806C92.3521 65.9801 77.5439 73.0112 66.8582 65.5289Z" fill="#FAC663" fill-opacity="0.15"/>
<path d="M31.6637 126.196C34.8125 127.318 39.8253 130.13 44.7765 133.496C50.013 137.05 55.1809 141.22 58.0141 144.647C65.6547 153.92 83.0185 156.587 89.4484 141.378C95.3912 127.317 85.4935 121.425 91.3822 108.279C97.3405 94.9974 92.585 83.2444 83.8061 77.7557C75.6802 72.6769 64.1076 72.9672 54.409 82.3936C44.0771 92.4405 35.179 85.162 24.0049 95.5544C11.8944 106.802 20.391 122.191 31.6637 126.196Z" fill="#FAC663" fill-opacity="0.15"/>
<path d="M100.31 88.9541C94.9339 85.1894 92.4949 78.8449 93.2632 72.2866C95.55 52.7864 121.803 41.9567 133.165 56.1689C147.542 74.1369 119.308 102.256 100.31 88.9541Z" fill="#FAC663" fill-opacity="0.15"/>
<path d="M93.7256 116.644C98.0403 97.492 125.232 89.4476 135.045 104.84C146.865 123.381 118.725 147.946 100.426 135.133C94.5533 131.021 92.085 123.924 93.7256 116.644Z" fill="#FAC663" fill-opacity="0.15"/>
</svg>
