<svg width="114" height="114" viewBox="0 0 114 114" fill="none" xmlns="http://www.w3.org/2000/svg">
<path d="M81.9924 45.4248C68.467 49.0975 55.5517 33.2533 64.8792 23.9259C68.9021 19.903 75.4045 19.4423 80.8169 21.7542C93.3167 27.094 93.6063 42.273 81.9924 45.4248Z" fill="#FFFEFD" fill-opacity="0.2"/>
<path d="M71.3801 52.4759C81.6975 42.1585 102.288 56.5703 95.363 69.2496C92.2076 75.0259 83.985 76.9597 76.6059 72.8428C68.3333 68.2303 65.5799 58.2761 71.3801 52.4759Z" fill="#FFFEFD" fill-opacity="0.2"/>
<path d="M37.5743 23.9771C36.5371 25.8056 34.249 28.6034 31.624 31.302C28.8515 34.1568 25.7043 36.9012 23.2712 38.2802C16.6909 41.9955 13.152 52.4658 21.8867 58.1267C29.9625 63.3593 34.6911 57.8725 42.2051 62.9708C49.7954 68.1271 57.6007 66.4734 61.9576 61.6356C65.9894 57.1576 67.0655 49.9516 62.2719 42.9011C57.1622 35.3898 62.6421 30.6753 57.4096 22.6038C51.7485 13.8577 41.2822 17.4302 37.5743 23.9771Z" fill="#FFFEFD" fill-opacity="0.2"/>
<path d="M53.2211 70.6336C56.1395 67.7152 60.339 66.902 64.3231 68.1006C76.1688 71.6657 80.036 89.1328 69.9884 94.6115C57.2843 101.545 42.9094 80.9454 53.2211 70.6336Z" fill="#FFFEFD" fill-opacity="0.2"/>
<path d="M36.7628 63.5022C48.1723 68.2861 50.2101 86.0289 39.5986 90.4165C26.817 95.7021 14.6359 75.5525 24.5687 65.6197C27.7564 62.432 32.4256 61.6834 36.7628 63.5022Z" fill="#FFFEFD" fill-opacity="0.2"/>
</svg>
