<svg width="150" height="157" viewBox="0 0 150 157" fill="none" xmlns="http://www.w3.org/2000/svg">
<path d="M93.9897 36.8571C69.9682 43.3801 47.0303 15.2403 63.5961 -1.3255C70.7409 -8.47027 82.2895 -9.28833 91.9019 -5.18245C114.102 4.30129 114.616 31.2595 93.9897 36.8571Z" fill="#FFFEFD" fill-opacity="0.2"/>
<path d="M75.1419 49.3801C93.4659 31.0561 130.035 56.6518 117.736 79.1706C112.132 89.4295 97.5286 92.864 84.4231 85.5522C69.7307 77.3603 64.8406 59.6814 75.1419 49.3801Z" fill="#FFFEFD" fill-opacity="0.2"/>
<path d="M15.1019 -1.23453C13.2599 2.01295 9.19615 6.982 4.53413 11.7748C-0.389902 16.845 -5.97952 21.7191 -10.3007 24.1681C-21.9875 30.7666 -28.2727 49.3622 -12.7596 59.4162C1.58313 68.7093 9.98139 58.9646 23.3264 68.0193C36.807 77.177 50.6694 74.24 58.4074 65.648C65.568 57.6949 67.4791 44.8969 58.9655 32.3751C49.8907 19.0348 59.623 10.6617 50.33 -3.67342C40.2757 -19.2068 21.6873 -12.862 15.1019 -1.23453Z" fill="#FFFEFD" fill-opacity="0.2"/>
<path d="M42.8911 81.6287C48.0742 76.4456 55.5327 75.0012 62.6086 77.1299C83.6469 83.4617 90.5151 114.484 72.6702 124.214C50.1074 136.528 24.5772 99.9427 42.8911 81.6287Z" fill="#FFFEFD" fill-opacity="0.2"/>
<path d="M13.6606 68.9631C33.9244 77.4595 37.5435 108.971 18.6972 116.764C-4.00334 126.151 -25.6373 90.3648 -7.99628 72.7238C-2.33488 67.0624 5.95772 65.7329 13.6606 68.9631Z" fill="#FFFEFD" fill-opacity="0.2"/>
</svg>
