<svg width="75" height="75" viewBox="0 0 75 75" fill="none" xmlns="http://www.w3.org/2000/svg">
<rect width="75" height="75" rx="37.5" fill="#FAC663"/>
<path d="M58.3788 39.1925C58.1952 39.007 54.7071 34.6483 47.0884 34.5092C46.3541 33.2109 43.5544 28.9913 39.0107 28.9913H38.873L36.8536 25.0962C36.7159 24.8644 36.4865 24.7253 36.257 24.7253H33.1361C32.8607 24.7253 32.6312 24.8644 32.5394 25.0962L30.7036 28.9449H30.1069C29.9233 28.9449 25.6091 28.6203 21.1113 34.4628H17.6232C17.302 34.4628 17.0266 34.6947 16.9348 35.0193C16.8889 35.2975 15.512 41.9746 17.8068 44.8495C18.5412 45.7305 19.505 46.1942 20.6983 46.1942H21.6621C21.9834 48.5127 23.9569 50.2747 26.3435 50.2747C28.73 50.2747 30.7036 48.5127 31.0248 46.1942H44.4264C44.7477 48.5127 46.7212 50.2747 49.1078 50.2747C51.4944 50.2747 53.4679 48.5127 53.7892 46.1942H57.828C58.1952 46.1942 58.5165 45.8697 58.5165 45.4987V39.6098C58.5165 39.4707 58.4706 39.2852 58.3788 39.1925ZM39.0107 30.336C42.2234 30.336 44.4264 33.0254 45.4362 34.5092H35.4767V30.336H39.0107ZM33.595 26.1164H35.8439L37.3126 28.9913H34.7883H32.2181L33.595 26.1164ZM30.061 30.336H34.1458V34.5092H22.9013C26.6188 30.1969 29.9692 30.336 30.061 30.336ZM26.3435 48.93C24.5076 48.93 22.9931 47.3998 22.9931 45.5451C22.9931 43.6903 24.5076 42.1601 26.3435 42.1601C28.1793 42.1601 29.6939 43.6903 29.6939 45.5451C29.7398 47.3998 28.2252 48.93 26.3435 48.93ZM49.1078 48.93C47.272 48.93 45.7574 47.3998 45.7574 45.5451C45.7574 43.6903 47.272 42.1601 49.1078 42.1601C50.9437 42.1601 52.4582 43.6903 52.4582 45.5451C52.4582 47.3998 50.9896 48.93 49.1078 48.93ZM57.1396 44.8495H53.7892C53.4679 42.5311 51.4944 40.769 49.1078 40.769C46.7212 40.769 44.7477 42.5311 44.4264 44.8495H31.0248C30.7036 42.5311 28.73 40.769 26.3435 40.769C23.9569 40.769 21.9834 42.5311 21.6621 44.8495H20.6983C19.918 44.8495 19.3214 44.5713 18.8624 44.0149C17.4397 42.2065 17.8068 37.9869 18.174 35.9003H21.4326H46.6753C53.0549 35.9003 56.4053 39.0997 57.1396 39.888V44.8495Z" fill="#FFFDFB"/>
<path d="M33.595 26.1164H35.8439L37.3126 28.9913H34.7883H32.2181L33.595 26.1164Z" fill="#FFFDFB"/>
<path d="M26.3435 48.93C24.5076 48.93 22.9931 47.3998 22.9931 45.5451C22.9931 43.6903 24.5076 42.1601 26.3435 42.1601C28.1793 42.1601 29.6939 43.6903 29.6939 45.5451C29.7398 47.3998 28.2252 48.93 26.3435 48.93Z" fill="#FFFDFB"/>
<path d="M49.1078 48.93C47.272 48.93 45.7574 47.3998 45.7574 45.5451C45.7574 43.6903 47.272 42.1601 49.1078 42.1601C50.9437 42.1601 52.4582 43.6903 52.4582 45.5451C52.4582 47.3998 50.9896 48.93 49.1078 48.93Z" fill="#FFFDFB"/>
</svg>
