<svg width="75" height="75" viewBox="0 0 75 75" fill="none" xmlns="http://www.w3.org/2000/svg">
<rect width="75" height="75" rx="37.5" fill="#FAC663"/>
<path d="M49.5994 25.2519C49.9724 25.2519 50.2747 25.5542 50.2747 25.9272C50.2747 26.3002 49.9724 26.6025 49.5994 26.6025H43.5595C43.1865 26.6025 42.8842 26.3002 42.8842 25.9272C42.8842 25.5542 43.1865 25.2519 43.5595 25.2519H49.5994ZM47.1755 28.9753C47.1755 28.6024 46.8731 28.3 46.5001 28.3H43.5595C43.1865 28.3 42.8842 28.6024 42.8842 28.9753C42.8842 29.3483 43.1865 29.6507 43.5595 29.6507H46.5001C46.8731 29.6507 47.1755 29.3483 47.1755 28.9753ZM42.8842 32.0235C42.8842 32.3965 43.1865 32.6988 43.5595 32.6988H49.5994C49.9724 32.6988 50.2747 32.3965 50.2747 32.0235C50.2747 31.6505 49.9724 31.3481 49.5994 31.3481H43.5595C43.1865 31.3481 42.8842 31.6505 42.8842 32.0235ZM47.1755 35.0726C47.1755 34.6996 46.8731 34.3973 46.5001 34.3973H43.5595C43.1865 34.3973 42.8842 34.6996 42.8842 35.0726C42.8842 35.4456 43.1865 35.7479 43.5595 35.7479H46.5001C46.8731 35.7479 47.1755 35.4456 47.1755 35.0726ZM42.8842 38.1207C42.8842 38.4937 43.1865 38.7961 43.5595 38.7961H49.5994C49.9724 38.7961 50.2747 38.4937 50.2747 38.1207C50.2747 37.7478 49.9724 37.4454 49.5994 37.4454H43.5595C43.1865 37.4454 42.8842 37.7478 42.8842 38.1207ZM44.0361 50.3849C44.0361 55.7776 39.7048 60.1648 34.3807 60.1648C29.0566 60.1648 24.7253 55.7776 24.7253 50.3849C24.7253 46.8902 26.5372 43.7142 29.4934 41.9572V19.7855C29.4934 17.0558 31.6858 14.8351 34.3807 14.8351C37.0756 14.8351 39.268 17.0558 39.268 19.7855V41.9572C42.2242 43.7123 44.0361 46.8892 44.0361 50.3849ZM42.6967 50.3849C42.6967 47.4195 41.0698 44.1579 38.4502 42.8105L37.9285 42.5419V19.7865C37.9285 18.1212 36.0238 16.1868 34.3807 16.1868C32.7376 16.1868 30.8329 18.1212 30.8329 19.7865V42.5419L30.3112 42.8105C27.6916 44.1589 26.0648 47.4205 26.0648 50.3849C26.0648 54.7122 30.1085 58.8141 34.3807 58.8141C38.6529 58.8141 42.6967 54.7122 42.6967 50.3849ZM40.5402 50.3849C40.5402 53.8245 37.7775 56.6228 34.3807 56.6228C30.9849 56.6228 28.2222 53.8245 28.2222 50.3849C28.2222 47.5654 30.6705 45.0897 33.3636 44.3643L33.7173 44.2687V33.0179C33.7173 32.6512 34.0146 32.354 34.3812 32.354C34.7478 32.354 35.045 32.6512 35.045 33.0179V44.2677L35.3988 44.3643C38.0928 45.0897 40.5402 47.5663 40.5402 50.3849ZM35.2289 46.2172C35.0821 45.5565 34.4507 45.7124 33.7822 45.8669C31.4477 46.402 29.817 48.4701 29.817 50.8965C29.817 51.5832 29.817 52.3193 30.6868 52.3193C31.1481 52.3193 31.2546 51.5532 31.2546 50.8664C31.2546 49.6329 32.0084 47.7924 33.7822 47.3795C34.4421 47.2259 35.3777 46.8856 35.2289 46.2172Z" fill="#FFFDFB"/>
</svg>
