<svg width="75" height="75" viewBox="0 0 75 75" fill="none" xmlns="http://www.w3.org/2000/svg">
<rect width="75" height="75" rx="37.5" fill="#FAC663"/>
<path d="M60.1638 34.3058C60.1483 33.9707 59.9511 33.3495 58.8038 32.9543L28.2147 22.4256C26.6467 21.8855 24.9066 22.6534 24.3358 24.1378L23.5078 26.2912L21.6447 31.1367C21.074 32.6211 21.8854 34.2682 23.4537 34.8085L32.3688 37.8765C32.1994 38.8519 32.482 39.8157 33.0971 40.553L31.1979 45.4919C31.1105 45.7192 30.8799 45.872 30.6241 45.872H25.0601V44.1532C25.0601 43.2055 24.2456 42.4344 23.2443 42.4344H22.0338C21.6996 42.4344 21.4286 42.6909 21.4286 43.0073V52.1743C21.4286 52.4907 21.6996 52.7473 22.0338 52.7473H23.2443C24.2456 52.7473 25.0601 51.9762 25.0601 51.0284V49.3096H30.6241C32.4012 49.3096 34.0031 48.2477 34.6104 46.6672L36.4696 41.8321C37.5336 41.6907 38.5005 41.1027 39.0744 40.1842L49.4926 43.7695C49.8331 43.8868 50.1816 43.9425 50.5246 43.9425C51.565 43.9424 52.5535 43.4305 53.1071 42.576L54.3026 42.9879C54.4377 43.0344 54.5776 43.0576 54.7172 43.0576C54.8915 43.0576 55.0651 43.0215 55.2277 42.9497C55.5205 42.8205 55.7427 42.5909 55.8531 42.3036L57.5098 37.995C57.7113 37.4709 57.4813 36.8966 56.9931 36.6208L58.9334 35.7644C60.04 35.276 60.1792 34.6409 60.1638 34.3058ZM23.8496 51.0284C23.8496 51.3443 23.5781 51.6014 23.2443 51.6014H22.6391V43.5803H23.2443C23.5781 43.5803 23.8496 43.8373 23.8496 44.1532V51.0284ZM33.4729 46.2754C33.0389 47.4049 31.894 48.1637 30.6241 48.1637H25.0601V47.0179H30.6241C31.3869 47.0179 32.0746 46.5622 32.3354 45.8839L34.0729 41.3653C34.2722 41.4786 34.4858 41.576 34.7126 41.6541C34.8736 41.7096 35.0361 41.7535 35.1988 41.7868L33.4729 46.2754ZM36.0382 40.7169C36.0242 40.7168 36.0103 40.7168 35.9964 40.7176C35.7081 40.7212 35.4141 40.6764 35.1266 40.5773C34.7902 40.4614 34.4968 40.283 34.2564 40.0608C34.2344 40.0354 34.21 40.0119 34.1833 39.9904C33.7325 39.5359 33.4912 38.9189 33.5369 38.2785L37.9066 39.7823C37.4645 40.3571 36.7724 40.6954 36.0382 40.7169ZM56.3724 37.6031L54.7168 41.9112L53.5785 41.519L55.1488 37.4349L55.4703 37.293L56.3724 37.6031ZM58.422 34.7259L55.1864 36.154L55.1854 36.1545L54.4105 36.4965L54.4097 36.4969L53.5012 36.8979C52.435 37.3685 50.6003 37.4442 49.4946 37.0633L26.2994 29.0822C25.9854 28.9743 26.7754 29.5191 26.6612 29.8165C26.5471 30.1139 25.5713 30.0508 25.8855 30.159L49.0809 38.1402C49.6901 38.3501 50.441 38.4523 51.2072 38.4523C52.045 38.4523 52.9003 38.3295 53.6082 38.0917L52.2342 41.6654C51.8917 42.5561 50.8477 43.0168 49.9067 42.6926L23.8674 33.7317C22.9266 33.4075 22.4398 32.4193 22.7822 31.5287L23.8178 28.8353C24.1632 29.3379 24.6768 29.7426 25.3166 29.963L25.8855 30.159C26.1993 30.2673 26.5469 30.1139 26.6612 29.8165C26.7755 29.5192 26.6136 29.1904 26.2994 29.0822L25.7306 28.8863C24.7899 28.5621 24.303 27.5741 24.6452 26.6835L24.8524 26.1448L25.4733 24.5296C25.8158 23.639 26.8598 23.178 27.8009 23.5024L58.3899 34.0311C58.7785 34.165 58.9222 34.3045 58.9514 34.3559C58.9271 34.4096 58.7968 34.5604 58.422 34.7259Z" fill="#FFFDFB"/>
<path d="M55.1864 36.154L58.422 34.7259C58.7968 34.5604 58.9271 34.4096 58.9514 34.3559C58.9222 34.3045 58.7785 34.165 58.3899 34.0311L27.8009 23.5024C26.8598 23.178 25.8158 23.639 25.4733 24.5296L24.8524 26.1448L24.6452 26.6835C24.303 27.5741 24.7899 28.5621 25.7306 28.8863L26.2994 29.0822L49.4946 37.0633C50.6003 37.4442 52.435 37.3685 53.5012 36.8979L54.4097 36.4969L54.4105 36.4965L55.1854 36.1545L55.1864 36.154Z" fill="#FFFDFB"/>
</svg>
