<svg width="75" height="75" viewBox="0 0 75 75" fill="none" xmlns="http://www.w3.org/2000/svg">
<rect width="75" height="75" rx="37.5" fill="#FAC663"/>
<path d="M56.5197 25.3791C56.2465 25.1606 55.8638 25.1085 55.5207 25.2118C54.2444 25.5959 53.2841 26.3609 52.8222 26.7858C51.9695 26.5427 51.0477 26.5427 50.1949 26.7858C49.7276 26.3558 48.7495 25.5774 47.4501 25.198C47.0628 25.085 46.6428 25.1971 46.3789 25.4911C46.155 25.7404 46.0984 26.0847 46.207 26.3931C46.5311 27.313 47.0557 28.7622 47.2396 29.2692C47.158 29.522 47.1082 29.7871 47.0914 30.06C47.0753 30.3217 47.0801 30.5725 47.1031 30.8126L46.7404 31.5263C46.5027 31.9938 46.0271 32.3183 45.475 32.3889C43.467 32.6458 39.5585 33.1644 35.9412 33.7526C31.2592 34.5138 29.4044 35.0151 28.6088 35.323C27.93 34.3663 26.963 33.5871 25.8378 33.0989C24.129 32.3576 21.27 30.7454 21.3222 28.2765C21.3694 26.0425 22.2804 24.7228 23.0362 24.009C23.3589 23.7043 23.5283 23.2848 23.5007 22.8582C23.4732 22.4308 23.2506 22.0321 22.8899 21.7644C22.1923 21.2467 21.1955 21.337 20.6205 21.9698C18.7067 24.0757 18.2483 26.9921 18.1453 28.5431C18.0416 30.1065 18.5367 31.553 19.6169 32.8425C20.3916 33.7672 21.449 34.5912 22.7596 35.2917C24.0304 35.9708 24.9488 37.0547 25.3459 38.3438C25.3808 38.4572 25.3973 38.5746 25.3948 38.6925L25.3822 39.2883C25.376 39.5797 25.3511 39.8706 25.3074 40.1592L24.8719 43.0424C24.7011 44.1737 23.9185 45.1251 22.8233 45.6474C22.0622 46.0104 21.6273 46.783 21.7411 47.5698L22.537 53.0738C22.5782 53.3587 22.8404 53.5714 23.1503 53.5714H26.4241C26.5565 53.5714 26.6885 53.5388 26.7964 53.4677C27.0164 53.3226 27.1054 53.0723 27.037 52.8438L27.0017 52.7258C26.7446 51.8672 26.0407 51.2097 25.1458 50.9569L24.992 49.7794C24.9488 49.4492 25.1509 49.1336 25.4841 49.0107L28.6119 47.8568C28.6114 47.8875 28.6102 47.9179 28.6079 47.9475C28.6077 47.951 28.6074 47.9546 28.6072 47.9582C28.5763 48.5024 28.5532 48.9927 28.5385 49.4153C28.5182 49.9956 28.7572 50.5574 29.1998 50.968L31.8251 53.4032C31.9411 53.5109 32.0985 53.5714 32.2626 53.5714H36.0582C36.3847 53.5714 36.6601 53.3235 36.6777 53.0211C36.7389 51.9687 35.9403 51.0578 34.8158 50.8997L33.7303 50.7472L33.282 50.0937C33.0616 49.7724 33.0688 49.3618 33.3003 49.0473L36.2609 45.0258C37.1606 44.7681 40.9552 43.7505 43.1803 44.2325C43.2096 44.5043 43.2905 44.7701 43.4208 45.0185L47.7369 53.2485C47.8405 53.446 48.0565 53.5714 48.2933 53.5714H51.229C51.3591 53.5714 51.4889 53.5401 51.5958 53.4714C51.8149 53.3307 51.9078 53.0856 51.8465 52.8583L51.6472 52.1188C51.4548 51.4051 50.8804 50.8576 50.1562 50.6436L50.875 44.8428C50.905 44.6007 50.9825 44.3661 51.1043 44.1503C51.5513 43.3579 52.4294 41.8349 53.2817 40.549C53.9516 39.5384 54.3826 38.3766 54.5279 37.1889C54.7492 35.3818 55.1829 33.0738 55.2904 32.5121C55.7668 31.8795 55.9862 31.0421 55.9257 30.0599C55.9089 29.787 55.8591 29.5219 55.7775 29.2692C55.9629 28.758 56.4949 27.2885 56.8182 26.3699C56.9434 26.0145 56.8291 25.6267 56.5197 25.3791ZM25.0268 47.9439C24.1723 48.2592 23.6528 49.0708 23.7635 49.9176L23.9704 51.5011C24.0048 51.7641 24.2287 51.9711 24.5123 52.002C24.8719 52.0413 25.194 52.1936 25.4339 52.4234H23.6916L22.9676 47.4171C22.9233 47.1106 23.0927 46.8096 23.3891 46.6682C24.7634 46.0125 25.74 44.813 26.0526 43.4197C27.166 44.6378 27.9599 45.7889 28.3461 46.7194L25.0268 47.9439ZM52.2277 39.9476C51.3563 41.262 50.4635 42.8104 50.0088 43.6164C49.8154 43.9593 49.6932 44.3279 49.6456 44.7117L49.3064 47.449L48.5592 44.0177C48.4884 43.6925 48.5692 43.3528 48.7811 43.0856L50.4857 40.935C51.428 39.7463 51.8568 38.2833 51.693 36.8155C51.6579 36.5002 51.3536 36.2712 51.0139 36.3037C50.674 36.3363 50.4269 36.6184 50.4621 36.9337C50.5941 38.117 50.2485 39.2965 49.4888 40.255L47.7841 42.4056C47.3662 42.9329 47.2065 43.6033 47.3462 44.245L48.8681 51.2329C48.9264 51.5006 49.1801 51.6932 49.4746 51.6932C49.9352 51.6932 50.3351 51.9827 50.4469 52.3974L50.454 52.4237H48.6804L44.5335 44.5163C44.428 44.3149 44.3864 44.091 44.4134 43.8684L45.0271 38.8172C45.0653 38.5022 44.8211 38.218 44.4815 38.1826C44.1414 38.1472 43.8357 38.3737 43.7974 38.6887L43.2642 43.0785C41.2446 42.7239 38.4691 43.2726 36.8927 43.6624C37.0205 42.8925 36.8117 42.0888 36.2714 41.4415L35.3673 40.3583C35.1581 40.1076 34.7696 40.0617 34.4993 40.2558C34.2291 40.4499 34.1796 40.8104 34.3888 41.061L35.2929 42.1443C35.7985 42.75 35.8253 43.5821 35.3595 44.2148L32.2784 48.4C31.7673 49.0941 31.7515 50.0008 32.238 50.71L32.8374 51.5838C32.9334 51.7237 33.09 51.8183 33.2667 51.8432L34.6304 52.0348C34.91 52.074 35.1434 52.2201 35.2873 52.4235H32.5188L30.0748 50.1564C29.8752 49.9713 29.7661 49.7148 29.7753 49.4527C29.7897 49.0389 29.8124 48.5581 29.8427 48.0235C29.9798 46.186 28.044 43.8045 26.8771 42.5476C26.6715 42.3261 26.5616 42.0442 26.5678 41.7537L26.6375 38.4511C26.6388 38.394 26.5357 38.0285 26.5357 38.0285C26.0498 36.451 24.9282 35.1259 23.3772 34.2971C19.886 32.4313 19.2767 30.1765 19.3804 28.6136C19.5982 25.33 20.8436 23.5051 21.5666 22.7096C21.7058 22.5566 21.9475 22.5351 22.1168 22.6608C22.2369 22.75 22.2615 22.8657 22.2653 22.9267C22.2692 22.9873 22.2599 23.1039 22.1533 23.2045C21.2402 24.0668 20.1401 25.6427 20.0848 28.254C20.0189 31.3721 23.3324 33.2793 25.3134 34.1387C26.375 34.5992 27.2637 35.3768 27.8158 36.3282C27.8158 36.3282 27.8447 36.3778 27.8503 36.3865C27.9413 36.5273 28.0937 36.6256 28.2678 36.6557C28.4445 36.6864 28.6274 36.644 28.768 36.5399C29.412 36.063 34.2182 34.9874 45.6442 33.5259C46.4622 33.4213 47.1783 33.0023 47.6335 32.3808C47.7481 32.5522 47.8792 32.7109 48.0286 32.8541C48.6552 33.4551 49.5535 33.7709 50.6313 33.7709C50.6715 33.7709 52.2538 33.7697 52.2538 33.7697C52.2574 33.7697 52.2609 33.7696 52.2645 33.7696C52.8463 33.782 53.3778 33.7038 53.8456 33.5406C53.6694 34.5303 53.441 35.8945 53.2984 37.0592C53.1734 38.0808 52.8031 39.0796 52.2277 39.9476ZM54.5442 29.0698C54.4937 29.1971 54.4928 29.3386 54.5451 29.4686C54.6272 29.6728 54.676 29.8938 54.6903 30.1253C54.7422 30.9678 54.5378 31.6354 54.0991 32.0561C53.6952 32.4435 53.0691 32.639 52.2891 32.622C52.2831 32.6218 52.2773 32.6218 52.2714 32.6218C52.2655 32.6218 50.7383 32.6205 50.7094 32.6224C49.9381 32.6354 49.3189 32.4406 48.918 32.0561C48.4793 31.6355 48.2749 30.9678 48.3268 30.1255C48.3411 29.894 48.39 29.673 48.4721 29.4687C48.5238 29.3398 48.5234 29.1997 48.4741 29.0733C48.4737 29.0721 48.4732 29.0708 48.4727 29.0694C48.4138 28.9071 47.9065 27.5098 47.5297 26.4504C48.7379 26.9397 49.5392 27.8122 49.5472 27.8211C49.7213 28.015 50.0116 28.0805 50.2625 27.9827C51.0545 27.6736 51.9628 27.6736 52.7546 27.9827C53.0043 28.0802 53.2944 28.0146 53.4689 27.8222C53.4778 27.8124 54.2791 26.9397 55.4874 26.4504C55.1102 27.5106 54.6024 28.9099 54.5442 29.0698Z" fill="#FFFDFB"/>
<path d="M48.4727 29.0694L48.4741 29.0733C48.8374 28.125 48.8374 28.125 49.5472 27.8211C49.5392 27.8122 48.7379 26.9397 47.5297 26.4504C47.9065 27.5098 48.4138 28.9071 48.4727 29.0694Z" fill="#FFFDFB"/>
<path d="M55.4874 26.4504C54.2791 26.9397 53.4778 27.8124 53.4689 27.8222C54.4944 28.1216 54.506 28.3432 54.5429 29.0454L54.5442 29.0698C54.6024 28.9099 55.1102 27.5106 55.4874 26.4504Z" fill="#FFFDFB"/>
<path d="M21.5666 22.7096C20.8436 23.5051 19.5982 25.33 19.3804 28.6136L20.0848 28.254C20.1401 25.6427 21.2402 24.0668 22.1533 23.2045C22.2599 23.1039 22.2692 22.9873 22.2653 22.9267C22.2615 22.8657 22.2369 22.75 22.1168 22.6608C21.9475 22.5351 21.7058 22.5566 21.5666 22.7096Z" fill="#FFFDFB"/>
</svg>
